# xmcd CD database file
#
# Track frame offsets:
#	150
#	18892
#	31028
#	50033
#	66170
#	86940
#	108298
#	123947
#	145440
#	158785
#
# Disc length: 2430 seconds
#
# Revision: 0
# Processed by: cddbd v1.5.1PL2 Copyright (c) Steve Scherf et al.
# Submitted via: CDex 1.60beta1-cs1
#
DISCID=82097c0a
DTITLE=Charlie Mariano - Charlie Mariano Plays
DYEAR=1955
DGENRE=Jazz
TTITLE0=Chloe
TTITLE1=You Go To My Head
TTITLE2=S' Nice
TTITLE3=Manteca
TTITLE4=It S You Or No One
TTITLE5=Three Little Words
TTITLE6=Green Walls
TTITLE7=Give A Little Whistle
TTITLE8=I Should Care
TTITLE9=My Melancholy Baby
EXTD=YEAR: 1955
EXTT0=
EXTT1=
EXTT2=
EXTT3=
EXTT4=
EXTT5=
EXTT6=
EXTT7=
EXTT8=
EXTT9=
PLAYORDER=
